<?xml version="1.0" encoding="UTF-8"?>
<!DOCTYPE svg>
<svg enable-background="new 0 0 540.543 540.543" version="1.1" viewBox="0 0 540.54 540.54" xml:space="preserve" xmlns="http://www.w3.org/2000/svg">
   <linearGradient id="a">
      <stop stop-color="#436ebc" offset="0"/>
      <stop stop-color="#f00" offset="1"/>
    </linearGradient>
	<g fill="url(#a)">
      <path d="m129.99 378.77c8.274 0 15.361-5.006 21.243-15.036 53.813-95.423 81.806-145.09 83.991-149.03l-53.593-93.458c-5.667-9.804-12.858-14.707-21.567-14.707h-78.11c-5.019 0-8.495 1.634-10.459 4.902-2.399 3.268-2.289 7.301 0.325 12.087l52.613 91.176c0.214 0.232 0.214 0.331 0 0.331l-82.682 146.41c-2.172 4.149-2.172 8.066 0 11.757 2.173 3.715 5.557 5.562 10.129 5.562h78.11zm358.5-378.77h-78.758c-8.495 0-15.472 4.902-20.912 14.707-111.77 198.26-169.62 300.89-173.54 307.85l110.78 203.28c5.227 9.804 12.418 14.706 21.567 14.706h78.104c4.791 0 8.28-1.634 10.459-4.902 2.172-3.715 2.068-7.748-0.325-12.099l-109.8-200.99v-0.318l172.55-305.24c2.393-4.571 2.393-8.592 0-12.087-1.965-3.274-5.343-4.908-10.135-4.908z"/>
	</g>
</svg>
